<svg xmlns="http://www.w3.org/2000/svg" width="800" height="480" viewBox="0 0 800 480" role="img" aria-labelledby="title desc">
  <title id="title">ADMINISTRATOR profile theme</title>
  <desc id="desc">amber authority, staff collection, decorative effect level 3. An ARENA rank theme in #ffb56a.</desc>
  <defs>
    <radialGradient id="light" cx="50%" cy="35%" r="65%"><stop stop-color="#ffb56a" stop-opacity=".15"/><stop offset="1" stop-color="#130d08" stop-opacity="0"/></radialGradient>
    <linearGradient id="metal" x1="0" y1="0" x2="1" y2="1"><stop stop-color="#312419"/><stop offset=".46" stop-color="#130d08"/><stop offset="1" stop-color="#312419"/></linearGradient>
    <linearGradient id="gem" x1="0" y1="0" x2=".8" y2="1"><stop stop-color="#ffdfbc" stop-opacity=".85"/><stop offset=".48" stop-color="#ffb56a" stop-opacity=".25"/><stop offset="1" stop-color="#ffb56a" stop-opacity=".58"/></linearGradient>
    <linearGradient id="edge"><stop stop-color="#ffb56a" stop-opacity="0"/><stop offset=".5" stop-color="#ffdfbc"/><stop offset="1" stop-color="#ffb56a" stop-opacity="0"/></linearGradient>
    <pattern id="grid" width="96" height="96" patternUnits="userSpaceOnUse"><path d="M48 0H0V48" fill="none" stroke="#ffb56a" opacity=".14"/></pattern>
  </defs>
  <rect width="800" height="480" fill="#130d08"/>
  <rect width="800" height="480" fill="url(#light)"/>
  <rect width="800" height="480" fill="url(#grid)" opacity=".46"/>
  <path d="m430-40 95 175 224-63-191 158 272 50M525 135l33 95L430-40M558 230l-103 102 375-12" fill="none" stroke="#ffb56a" stroke-opacity=".17"/><path d="m525 135 224-63-191 158Z" fill="#ffb56a" opacity=".04"/>
  <rect x="20.5" y="20.5" width="759" height="439" rx="8" fill="none" stroke="#ffb56a" stroke-opacity=".18"/>
  <path d="M40 70V40h30m660 0h30v30M40 410v30h30m660 0h30v-30" fill="none" stroke="#ffdfbc" opacity=".42"/>
  <text x="50" y="61" fill="#ffdfbc" font-family="Arial, sans-serif" font-size="12" font-weight="700" letter-spacing="3">ARENA</text>
  <text x="750" y="61" text-anchor="end" fill="#ffdfbc" opacity=".72" font-family="Arial, sans-serif" font-size="9" font-weight="700" letter-spacing="2">STAFF COLLECTION</text>
  
  
  <g transform="translate(400 213)" stroke="#ffdfbc" stroke-linejoin="round" stroke-linecap="round"><path d="m0-91 71 27v60c0 39-37 73-71 94-34-21-71-55-71-94v-60Z" fill="url(#metal)" stroke-width="2"/><path d="m0-71 53 20V-4c0 29-29 56-53 73-24-17-53-44-53-73v-47Z" fill="none"/><path d="m-31 1 31-23L31 1m-62 28L0 6l31 23" fill="none" stroke-width="5"/><path d="M0-52v16M0 42v12" stroke-width="3"/><path d="m-107-49 20 14v87m194-101-20 14v87M-114-31l13 10v52m215-62-13 10v52" fill="none" opacity=".65"/><path d="m0-115 5 7-5 7-5-7Z" fill="url(#gem)"/></g>
  <path d="M130 354H670" stroke="url(#edge)" opacity=".55"/>
  <text x="50" y="392" fill="#ffdfbc" opacity=".78" font-family="Arial, sans-serif" font-size="9" font-weight="700" letter-spacing="3">AMBER AUTHORITY</text>
  <text x="48" y="438" fill="#f6f5fa" font-family="Arial, sans-serif" font-size="45" font-weight="800" letter-spacing="-1.3">ADMINISTRATOR</text>
  <rect x="668" y="413" width="7" height="18" rx="1" fill="#ffdfbc" opacity="0.6333333333333333"/><rect x="681" y="413" width="7" height="18" rx="1" fill="#ffdfbc" opacity="0.8166666666666667"/><rect x="694" y="413" width="7" height="18" rx="1" fill="#ffdfbc" opacity="1"/>
</svg>

